<svg width="43" height="43" viewBox="0 0 43 43" fill="none" xmlns="http://www.w3.org/2000/svg">
<path d="M18.6599 18.6602C17.9316 19.3847 17.5204 20.3686 17.5166 21.396C17.5166 22.4248 17.9253 23.4115 18.6528 24.139C19.3803 24.8665 20.3669 25.2752 21.3958 25.2752C22.4231 25.2714 23.407 24.8602 24.1316 24.1318" stroke="#EA454C" stroke-width="4" stroke-linecap="round" stroke-linejoin="round"/>
<path d="M21.3958 9.7583C19.0941 9.7583 16.8441 10.4408 14.9304 11.7196C13.0166 12.9983 11.525 14.8158 10.6442 16.9423C9.76334 19.0688 9.53288 21.4087 9.98192 23.6662C10.431 25.9236 11.5393 27.9972 13.1669 29.6248C14.7944 31.2523 16.868 32.3607 19.1254 32.8097C21.3829 33.2587 23.7228 33.0283 25.8493 32.1474C27.9758 31.2666 29.7933 29.775 31.072 27.8612C32.3508 25.9475 33.0333 23.6975 33.0333 21.3958" stroke="#EA454C" stroke-width="4" stroke-linecap="round" stroke-linejoin="round"/>
<path d="M21.3958 2C17.5597 2 13.8097 3.13755 10.6201 5.26879C7.43047 7.40003 4.94445 10.4292 3.47643 13.9734C2.0084 17.5175 1.6243 21.4174 2.37269 25.1798C3.12109 28.9422 4.96836 32.3982 7.68092 35.1108C10.3935 37.8233 13.8495 39.6706 17.6119 40.419C21.3743 41.1674 25.2742 40.7833 28.8183 39.3152C32.3624 37.8472 35.3916 35.3612 37.5229 32.1716C39.6541 28.982 40.7917 25.232 40.7917 21.3958M28.5927 14.201L23.3354 19.4563" stroke="#EA454C" stroke-width="4" stroke-linecap="round" stroke-linejoin="round"/>
<path d="M39.6483 8.82746L33.0333 9.75846L33.9643 3.14346C33.9712 3.06662 33.9549 2.9895 33.9177 2.92193C33.8805 2.85437 33.824 2.79943 33.7554 2.76415C33.6868 2.72887 33.6092 2.71484 33.5326 2.72385C33.456 2.73286 33.3838 2.76451 33.3253 2.81475L28.9398 7.17779C28.4893 7.63149 28.158 8.18949 27.9753 8.80215C27.7926 9.41481 27.7641 10.0631 27.8924 10.6895L28.5907 14.2011L32.1023 14.8973C32.7287 15.0257 33.377 14.9972 33.9896 14.8145C34.6023 14.6317 35.1603 14.3004 35.614 13.85L39.975 9.4665C40.0254 9.40784 40.0571 9.33544 40.0661 9.25862C40.0751 9.18179 40.0609 9.10403 40.0253 9.03534C39.9898 8.96664 39.9345 8.91015 39.8666 8.8731C39.7987 8.83606 39.7213 8.82017 39.6442 8.82746" stroke="#EA454C" stroke-width="4" stroke-linecap="round" stroke-linejoin="round"/>
</svg>
