<svg width="54" height="54" viewBox="0 0 54 54" fill="none" xmlns="http://www.w3.org/2000/svg">
<path d="M9 46.125C10.864 46.125 12.375 44.614 12.375 42.75C12.375 40.886 10.864 39.375 9 39.375C7.13604 39.375 5.625 40.886 5.625 42.75C5.625 44.614 7.13604 46.125 9 46.125Z" fill="#EA454C"/>
<path d="M18 48.375C19.864 48.375 21.375 46.864 21.375 45C21.375 43.136 19.864 41.625 18 41.625C16.136 41.625 14.625 43.136 14.625 45C14.625 46.864 16.136 48.375 18 48.375Z" fill="#EA454C"/>
<path d="M27 40.5C28.864 40.5 30.375 38.989 30.375 37.125C30.375 35.261 28.864 33.75 27 33.75C25.136 33.75 23.625 35.261 23.625 37.125C23.625 38.989 25.136 40.5 27 40.5Z" fill="#EA454C"/>
<path d="M36 42.75C37.864 42.75 39.375 41.239 39.375 39.375C39.375 37.511 37.864 36 36 36C34.136 36 32.625 37.511 32.625 39.375C32.625 41.239 34.136 42.75 36 42.75Z" fill="#EA454C"/>
<path d="M45 38.25C46.864 38.25 48.375 36.739 48.375 34.875C48.375 33.011 46.864 31.5 45 31.5C43.136 31.5 41.625 33.011 41.625 34.875C41.625 36.739 43.136 38.25 45 38.25Z" fill="#EA454C"/>
<path d="M43.9875 32.8501L35.775 37.0126L26.4375 34.6501L17.4375 42.5251L9.5625 40.6126L8.4375 44.8876L18.5625 47.4751L27.5625 39.6001L36.225 41.7376L46.0125 36.9001L43.9875 32.8501Z" fill="#EA454C"/>
<path d="M9 25.875C10.864 25.875 12.375 24.364 12.375 22.5C12.375 20.636 10.864 19.125 9 19.125C7.13604 19.125 5.625 20.636 5.625 22.5C5.625 24.364 7.13604 25.875 9 25.875Z" fill="#00D078"/>
<path d="M18 28.125C19.864 28.125 21.375 26.614 21.375 24.75C21.375 22.886 19.864 21.375 18 21.375C16.136 21.375 14.625 22.886 14.625 24.75C14.625 26.614 16.136 28.125 18 28.125Z" fill="#00D078"/>
<path d="M27 20.25C28.864 20.25 30.375 18.739 30.375 16.875C30.375 15.011 28.864 13.5 27 13.5C25.136 13.5 23.625 15.011 23.625 16.875C23.625 18.739 25.136 20.25 27 20.25Z" fill="#00D078"/>
<path d="M36 25.875C37.864 25.875 39.375 24.364 39.375 22.5C39.375 20.636 37.864 19.125 36 19.125C34.136 19.125 32.625 20.636 32.625 22.5C32.625 24.364 34.136 25.875 36 25.875Z" fill="#00D078"/>
<path d="M45 12.375C46.864 12.375 48.375 10.864 48.375 9C48.375 7.13604 46.864 5.625 45 5.625C43.136 5.625 41.625 7.13604 41.625 9C41.625 10.864 43.136 12.375 45 12.375Z" fill="#00D078"/>
<path d="M43.0875 7.7627C40.725 11.3627 37.125 16.7627 35.325 19.4627C33.975 18.6752 31.8375 17.2127 28.125 14.9627L26.6625 14.0627L17.325 22.2752L9.44995 20.3627L8.32495 24.7502L18.45 27.3377L27.1125 19.8002C30.0375 21.6002 33.6375 23.8502 34.425 24.4127L34.9875 24.9752L36 24.8627C37.2375 24.7502 37.2374 24.7502 46.6875 10.3502L43.0875 7.7627Z" fill="#00D078"/>
</svg>
