<svg width="46" height="46" viewBox="0 0 46 46" fill="none" xmlns="http://www.w3.org/2000/svg">
<path d="M22.9167 45.8333C19.7465 45.8333 16.7674 45.2314 13.9792 44.0275C11.191 42.8236 8.76563 41.1912 6.70313 39.1302C4.64063 37.0692 3.0082 34.6439 1.80584 31.8542C0.603475 29.0644 0.00153068 26.0853 2.90084e-06 22.9167C-0.00152488 19.7481 0.60042 16.7689 1.80584 13.9792C3.01125 11.1894 4.64368 8.7641 6.70313 6.70312C8.76257 4.64215 11.1879 3.00972 13.9792 1.80583C16.7704 0.601945 19.7496 0 22.9167 0H25.2083V18.9635C25.8958 19.3837 26.4497 19.9283 26.8698 20.5975C27.2899 21.2667 27.5 22.0397 27.5 22.9167C27.5 24.1771 27.0516 25.2565 26.1548 26.1548C25.258 27.0531 24.1786 27.5015 22.9167 27.5C21.6547 27.4985 20.5761 27.0501 19.6808 26.1548C18.7856 25.2595 18.3364 24.1801 18.3333 22.9167C18.3333 22.0382 18.5434 21.2552 18.9635 20.5677C19.3837 19.8802 19.9375 19.3455 20.625 18.9635V14.0365C18.6389 14.5712 16.9965 15.6506 15.6979 17.2746C14.3993 18.8986 13.75 20.7793 13.75 22.9167C13.75 25.4375 14.6476 27.5955 16.4427 29.3906C18.2379 31.1858 20.3958 32.0833 22.9167 32.0833C25.4375 32.0833 27.5955 31.1858 29.3906 29.3906C31.1858 27.5955 32.0833 25.4375 32.0833 22.9167C32.0833 21.5417 31.806 20.2721 31.2515 19.1079C30.6969 17.9437 29.9429 16.9217 28.9896 16.0417L32.2552 12.776C33.592 14.0365 34.6615 15.536 35.4635 17.2746C36.2656 19.0132 36.6667 20.8939 36.6667 22.9167C36.6667 26.7361 35.3299 29.9826 32.6562 32.6562C29.9826 35.3299 26.7361 36.6667 22.9167 36.6667C19.0972 36.6667 15.8507 35.3299 13.1771 32.6562C10.5035 29.9826 9.16667 26.7361 9.16667 22.9167C9.16667 19.4792 10.2552 16.4908 12.4323 13.9517C14.6094 11.4125 17.3403 9.87479 20.625 9.33854V4.69792C16.0799 5.27083 12.2696 7.27604 9.19417 10.7135C6.11875 14.151 4.58181 18.2187 4.58334 22.9167C4.58334 28.0347 6.35938 32.3698 9.91146 35.9219C13.4635 39.474 17.7986 41.25 22.9167 41.25C28.0347 41.25 32.3698 39.474 35.9219 35.9219C39.474 32.3698 41.25 28.0347 41.25 22.9167C41.25 20.2812 40.7344 17.8177 39.7031 15.526C38.6719 13.2344 37.2587 11.2483 35.4635 9.56771L38.7292 6.30208C40.9062 8.40278 42.6349 10.8762 43.9152 13.7225C45.1955 16.5687 45.8349 19.6335 45.8333 22.9167C45.8333 26.0868 45.2314 29.066 44.0275 31.8542C42.8236 34.6424 41.1912 37.0677 39.1302 39.1302C37.0692 41.1927 34.6439 42.8259 31.8542 44.0298C29.0644 45.2337 26.0853 45.8349 22.9167 45.8333Z" fill="#EA454C"/>
</svg>
